<mxfile host="app.diagrams.net" agent="Mozilla/5.0 (Macintosh; Intel Mac OS X 10_15_7) AppleWebKit/537.36 (KHTML, like Gecko) Chrome/133.0.0.0 Safari/537.36" version="26.1.0">
  <diagram name="Page-1" id="1zKtDQW7CgCGdfxJF5NV">
    <mxGraphModel dx="2110" dy="855" grid="1" gridSize="10" guides="1" tooltips="1" connect="1" arrows="1" fold="1" page="1" pageScale="1" pageWidth="827" pageHeight="1169" math="0" shadow="0">
      <root>
        <mxCell id="0" />
        <mxCell id="1" parent="0" />
        <mxCell id="9fB1rzHVUbRyausaAl3s-1" value="USER" style="rounded=1;whiteSpace=wrap;html=1;fillColor=#fff2cc;strokeColor=#d6b656;" vertex="1" parent="1">
          <mxGeometry x="60" y="100" width="80" height="30" as="geometry" />
        </mxCell>
        <mxCell id="9fB1rzHVUbRyausaAl3s-2" value="gmail" style="rounded=0;whiteSpace=wrap;html=1;" vertex="1" parent="1">
          <mxGeometry x="140" y="130" width="80" height="30" as="geometry" />
        </mxCell>
        <mxCell id="9fB1rzHVUbRyausaAl3s-3" value="password" style="rounded=0;whiteSpace=wrap;html=1;" vertex="1" parent="1">
          <mxGeometry x="220" y="130" width="80" height="30" as="geometry" />
        </mxCell>
        <mxCell id="9fB1rzHVUbRyausaAl3s-4" value="lastName" style="rounded=0;whiteSpace=wrap;html=1;" vertex="1" parent="1">
          <mxGeometry x="300" y="130" width="80" height="30" as="geometry" />
        </mxCell>
        <mxCell id="9fB1rzHVUbRyausaAl3s-5" value="firstName" style="rounded=0;whiteSpace=wrap;html=1;" vertex="1" parent="1">
          <mxGeometry x="380" y="130" width="80" height="30" as="geometry" />
        </mxCell>
        <mxCell id="9fB1rzHVUbRyausaAl3s-6" value="nickName" style="rounded=0;whiteSpace=wrap;html=1;" vertex="1" parent="1">
          <mxGeometry x="460" y="130" width="80" height="30" as="geometry" />
        </mxCell>
        <mxCell id="9fB1rzHVUbRyausaAl3s-7" value="phone" style="rounded=0;whiteSpace=wrap;html=1;" vertex="1" parent="1">
          <mxGeometry x="540" y="130" width="80" height="30" as="geometry" />
        </mxCell>
        <mxCell id="9fB1rzHVUbRyausaAl3s-8" value="birthday" style="rounded=0;whiteSpace=wrap;html=1;" vertex="1" parent="1">
          <mxGeometry x="620" y="130" width="80" height="30" as="geometry" />
        </mxCell>
        <mxCell id="9fB1rzHVUbRyausaAl3s-9" value="location" style="rounded=0;whiteSpace=wrap;html=1;" vertex="1" parent="1">
          <mxGeometry x="700" y="130" width="80" height="30" as="geometry" />
        </mxCell>
        <mxCell id="9fB1rzHVUbRyausaAl3s-10" value="level" style="rounded=0;whiteSpace=wrap;html=1;" vertex="1" parent="1">
          <mxGeometry x="780" y="130" width="80" height="30" as="geometry" />
        </mxCell>
        <mxCell id="9fB1rzHVUbRyausaAl3s-14" value="photo" style="rounded=0;whiteSpace=wrap;html=1;" vertex="1" parent="1">
          <mxGeometry x="860" y="130" width="80" height="30" as="geometry" />
        </mxCell>
        <mxCell id="9fB1rzHVUbRyausaAl3s-15" value="VENUE" style="rounded=1;whiteSpace=wrap;html=1;fillColor=#fff2cc;strokeColor=#d6b656;" vertex="1" parent="1">
          <mxGeometry x="60" y="200" width="80" height="30" as="geometry" />
        </mxCell>
        <mxCell id="9fB1rzHVUbRyausaAl3s-34" style="edgeStyle=orthogonalEdgeStyle;rounded=0;orthogonalLoop=1;jettySize=auto;html=1;entryX=0.5;entryY=1;entryDx=0;entryDy=0;" edge="1" parent="1" source="9fB1rzHVUbRyausaAl3s-16" target="9fB1rzHVUbRyausaAl3s-20">
          <mxGeometry relative="1" as="geometry">
            <Array as="points">
              <mxPoint x="100" y="280" />
              <mxPoint x="40" y="280" />
              <mxPoint x="40" y="380" />
              <mxPoint x="100" y="380" />
            </Array>
          </mxGeometry>
        </mxCell>
        <mxCell id="9fB1rzHVUbRyausaAl3s-16" value="&lt;u&gt;venueID&lt;/u&gt;" style="rounded=0;whiteSpace=wrap;html=1;" vertex="1" parent="1">
          <mxGeometry x="60" y="230" width="80" height="30" as="geometry" />
        </mxCell>
        <mxCell id="9fB1rzHVUbRyausaAl3s-17" value="address" style="rounded=0;whiteSpace=wrap;html=1;" vertex="1" parent="1">
          <mxGeometry x="140" y="230" width="80" height="30" as="geometry" />
        </mxCell>
        <mxCell id="9fB1rzHVUbRyausaAl3s-18" value="status" style="rounded=0;whiteSpace=wrap;html=1;" vertex="1" parent="1">
          <mxGeometry x="220" y="230" width="80" height="30" as="geometry" />
        </mxCell>
        <mxCell id="9fB1rzHVUbRyausaAl3s-19" value="COURT" style="rounded=1;whiteSpace=wrap;html=1;fillColor=#fff2cc;strokeColor=#d6b656;" vertex="1" parent="1">
          <mxGeometry x="60" y="300" width="80" height="30" as="geometry" />
        </mxCell>
        <mxCell id="9fB1rzHVUbRyausaAl3s-57" style="edgeStyle=orthogonalEdgeStyle;rounded=0;orthogonalLoop=1;jettySize=auto;html=1;" edge="1" parent="1" source="9fB1rzHVUbRyausaAl3s-20" target="9fB1rzHVUbRyausaAl3s-44">
          <mxGeometry relative="1" as="geometry">
            <Array as="points">
              <mxPoint x="80" y="390" />
              <mxPoint y="390" />
              <mxPoint y="700" />
              <mxPoint x="180" y="700" />
            </Array>
          </mxGeometry>
        </mxCell>
        <mxCell id="9fB1rzHVUbRyausaAl3s-20" value="&lt;u&gt;venueID&lt;/u&gt;" style="rounded=0;whiteSpace=wrap;html=1;" vertex="1" parent="1">
          <mxGeometry x="60" y="330" width="80" height="30" as="geometry" />
        </mxCell>
        <mxCell id="9fB1rzHVUbRyausaAl3s-58" style="edgeStyle=orthogonalEdgeStyle;rounded=0;orthogonalLoop=1;jettySize=auto;html=1;entryX=0.5;entryY=1;entryDx=0;entryDy=0;" edge="1" parent="1" source="9fB1rzHVUbRyausaAl3s-21" target="9fB1rzHVUbRyausaAl3s-45">
          <mxGeometry relative="1" as="geometry">
            <Array as="points">
              <mxPoint x="180" y="370" />
              <mxPoint x="-40" y="370" />
              <mxPoint x="-40" y="710" />
              <mxPoint x="260" y="710" />
            </Array>
          </mxGeometry>
        </mxCell>
        <mxCell id="9fB1rzHVUbRyausaAl3s-21" value="&lt;u&gt;localNum&lt;/u&gt;" style="rounded=0;whiteSpace=wrap;html=1;" vertex="1" parent="1">
          <mxGeometry x="140" y="330" width="80" height="30" as="geometry" />
        </mxCell>
        <mxCell id="9fB1rzHVUbRyausaAl3s-22" value="name" style="rounded=0;whiteSpace=wrap;html=1;" vertex="1" parent="1">
          <mxGeometry x="220" y="330" width="80" height="30" as="geometry" />
        </mxCell>
        <mxCell id="9fB1rzHVUbRyausaAl3s-23" value="siteProperty" style="rounded=0;whiteSpace=wrap;html=1;" vertex="1" parent="1">
          <mxGeometry x="300" y="330" width="80" height="30" as="geometry" />
        </mxCell>
        <mxCell id="9fB1rzHVUbRyausaAl3s-25" value="TEAM" style="rounded=1;whiteSpace=wrap;html=1;fillColor=#fff2cc;strokeColor=#d6b656;" vertex="1" parent="1">
          <mxGeometry x="60" y="400" width="80" height="30" as="geometry" />
        </mxCell>
        <mxCell id="9fB1rzHVUbRyausaAl3s-42" style="edgeStyle=orthogonalEdgeStyle;rounded=0;orthogonalLoop=1;jettySize=auto;html=1;entryX=0.5;entryY=1;entryDx=0;entryDy=0;" edge="1" parent="1" source="9fB1rzHVUbRyausaAl3s-26" target="9fB1rzHVUbRyausaAl3s-36">
          <mxGeometry relative="1" as="geometry">
            <Array as="points">
              <mxPoint x="100" y="500" />
              <mxPoint x="40" y="500" />
              <mxPoint x="40" y="580" />
              <mxPoint x="100" y="580" />
            </Array>
          </mxGeometry>
        </mxCell>
        <mxCell id="9fB1rzHVUbRyausaAl3s-26" value="&lt;u&gt;teamID&lt;/u&gt;" style="rounded=0;whiteSpace=wrap;html=1;" vertex="1" parent="1">
          <mxGeometry x="60" y="430" width="80" height="30" as="geometry" />
        </mxCell>
        <mxCell id="9fB1rzHVUbRyausaAl3s-27" value="teamName" style="rounded=0;whiteSpace=wrap;html=1;" vertex="1" parent="1">
          <mxGeometry x="140" y="430" width="80" height="30" as="geometry" />
        </mxCell>
        <mxCell id="9fB1rzHVUbRyausaAl3s-28" value="holderID" style="rounded=0;whiteSpace=wrap;html=1;" vertex="1" parent="1">
          <mxGeometry x="220" y="430" width="80" height="30" as="geometry" />
        </mxCell>
        <mxCell id="9fB1rzHVUbRyausaAl3s-29" value="photo" style="rounded=0;whiteSpace=wrap;html=1;" vertex="1" parent="1">
          <mxGeometry x="300" y="430" width="80" height="30" as="geometry" />
        </mxCell>
        <mxCell id="9fB1rzHVUbRyausaAl3s-31" style="edgeStyle=orthogonalEdgeStyle;rounded=0;orthogonalLoop=1;jettySize=auto;html=1;exitX=0.5;exitY=1;exitDx=0;exitDy=0;" edge="1" parent="1" source="9fB1rzHVUbRyausaAl3s-30">
          <mxGeometry relative="1" as="geometry">
            <mxPoint x="260" y="460" as="targetPoint" />
            <Array as="points">
              <mxPoint x="100" y="180" />
              <mxPoint x="30" y="180" />
              <mxPoint x="30" y="480" />
              <mxPoint x="260" y="480" />
            </Array>
          </mxGeometry>
        </mxCell>
        <mxCell id="9fB1rzHVUbRyausaAl3s-41" style="edgeStyle=orthogonalEdgeStyle;rounded=0;orthogonalLoop=1;jettySize=auto;html=1;entryX=0.5;entryY=1;entryDx=0;entryDy=0;" edge="1" parent="1" source="9fB1rzHVUbRyausaAl3s-30" target="9fB1rzHVUbRyausaAl3s-37">
          <mxGeometry relative="1" as="geometry">
            <Array as="points">
              <mxPoint x="100" y="170" />
              <mxPoint x="20" y="170" />
              <mxPoint x="20" y="590" />
              <mxPoint x="180" y="590" />
            </Array>
          </mxGeometry>
        </mxCell>
        <mxCell id="9fB1rzHVUbRyausaAl3s-56" style="edgeStyle=orthogonalEdgeStyle;rounded=0;orthogonalLoop=1;jettySize=auto;html=1;" edge="1" parent="1" source="9fB1rzHVUbRyausaAl3s-30" target="9fB1rzHVUbRyausaAl3s-55">
          <mxGeometry relative="1" as="geometry">
            <Array as="points">
              <mxPoint x="120" y="180" />
              <mxPoint x="420" y="180" />
              <mxPoint x="420" y="630" />
              <mxPoint x="340" y="630" />
            </Array>
          </mxGeometry>
        </mxCell>
        <mxCell id="9fB1rzHVUbRyausaAl3s-30" value="&lt;u&gt;userID&lt;/u&gt;" style="rounded=0;whiteSpace=wrap;html=1;" vertex="1" parent="1">
          <mxGeometry x="60" y="130" width="80" height="30" as="geometry" />
        </mxCell>
        <mxCell id="9fB1rzHVUbRyausaAl3s-35" value="TMEMBER" style="rounded=1;whiteSpace=wrap;html=1;fillColor=#fff2cc;strokeColor=#d6b656;" vertex="1" parent="1">
          <mxGeometry x="60" y="510" width="80" height="30" as="geometry" />
        </mxCell>
        <mxCell id="9fB1rzHVUbRyausaAl3s-36" value="&lt;u&gt;teamID&lt;/u&gt;" style="rounded=0;whiteSpace=wrap;html=1;" vertex="1" parent="1">
          <mxGeometry x="60" y="540" width="80" height="30" as="geometry" />
        </mxCell>
        <mxCell id="9fB1rzHVUbRyausaAl3s-37" value="&lt;u&gt;userID&lt;/u&gt;" style="rounded=0;whiteSpace=wrap;html=1;" vertex="1" parent="1">
          <mxGeometry x="140" y="540" width="80" height="30" as="geometry" />
        </mxCell>
        <mxCell id="9fB1rzHVUbRyausaAl3s-38" value="position" style="rounded=0;whiteSpace=wrap;html=1;" vertex="1" parent="1">
          <mxGeometry x="220" y="540" width="80" height="30" as="geometry" />
        </mxCell>
        <mxCell id="9fB1rzHVUbRyausaAl3s-39" value="status" style="rounded=0;whiteSpace=wrap;html=1;" vertex="1" parent="1">
          <mxGeometry x="300" y="540" width="80" height="30" as="geometry" />
        </mxCell>
        <mxCell id="9fB1rzHVUbRyausaAl3s-43" value="RENT" style="rounded=1;whiteSpace=wrap;html=1;fillColor=#fff2cc;strokeColor=#d6b656;" vertex="1" parent="1">
          <mxGeometry x="60" y="620" width="80" height="30" as="geometry" />
        </mxCell>
        <mxCell id="9fB1rzHVUbRyausaAl3s-44" value="venueID" style="rounded=0;whiteSpace=wrap;html=1;" vertex="1" parent="1">
          <mxGeometry x="140" y="650" width="80" height="30" as="geometry" />
        </mxCell>
        <mxCell id="9fB1rzHVUbRyausaAl3s-45" value="localNum" style="rounded=0;whiteSpace=wrap;html=1;" vertex="1" parent="1">
          <mxGeometry x="220" y="650" width="80" height="30" as="geometry" />
        </mxCell>
        <mxCell id="9fB1rzHVUbRyausaAl3s-46" value="net" style="rounded=0;whiteSpace=wrap;html=1;" vertex="1" parent="1">
          <mxGeometry x="380" y="650" width="80" height="30" as="geometry" />
        </mxCell>
        <mxCell id="9fB1rzHVUbRyausaAl3s-47" value="startTime" style="rounded=0;whiteSpace=wrap;html=1;" vertex="1" parent="1">
          <mxGeometry x="460" y="650" width="80" height="30" as="geometry" />
        </mxCell>
        <mxCell id="9fB1rzHVUbRyausaAl3s-48" value="endTime" style="rounded=0;whiteSpace=wrap;html=1;" vertex="1" parent="1">
          <mxGeometry x="540" y="650" width="80" height="30" as="geometry" />
        </mxCell>
        <mxCell id="9fB1rzHVUbRyausaAl3s-49" value="level" style="rounded=0;whiteSpace=wrap;html=1;" vertex="1" parent="1">
          <mxGeometry x="620" y="650" width="80" height="30" as="geometry" />
        </mxCell>
        <mxCell id="9fB1rzHVUbRyausaAl3s-50" value="totalPlayer" style="rounded=0;whiteSpace=wrap;html=1;" vertex="1" parent="1">
          <mxGeometry x="700" y="650" width="80" height="30" as="geometry" />
        </mxCell>
        <mxCell id="9fB1rzHVUbRyausaAl3s-51" value="curPlayer" style="rounded=0;whiteSpace=wrap;html=1;" vertex="1" parent="1">
          <mxGeometry x="780" y="650" width="80" height="30" as="geometry" />
        </mxCell>
        <mxCell id="9fB1rzHVUbRyausaAl3s-54" value="&lt;u&gt;rentID&lt;/u&gt;" style="rounded=0;whiteSpace=wrap;html=1;" vertex="1" parent="1">
          <mxGeometry x="60" y="650" width="80" height="30" as="geometry" />
        </mxCell>
        <mxCell id="9fB1rzHVUbRyausaAl3s-55" value="holder" style="rounded=0;whiteSpace=wrap;html=1;" vertex="1" parent="1">
          <mxGeometry x="300" y="650" width="80" height="30" as="geometry" />
        </mxCell>
        <mxCell id="9fB1rzHVUbRyausaAl3s-60" value="status" style="rounded=0;whiteSpace=wrap;html=1;" vertex="1" parent="1">
          <mxGeometry x="860" y="650" width="80" height="30" as="geometry" />
        </mxCell>
        <mxCell id="9fB1rzHVUbRyausaAl3s-61" value="registTime" style="rounded=0;whiteSpace=wrap;html=1;" vertex="1" parent="1">
          <mxGeometry x="940" y="650" width="80" height="30" as="geometry" />
        </mxCell>
        <mxCell id="9fB1rzHVUbRyausaAl3s-62" value="GAME" style="rounded=1;whiteSpace=wrap;html=1;fillColor=#fff2cc;strokeColor=#d6b656;" vertex="1" parent="1">
          <mxGeometry x="60" y="740" width="80" height="30" as="geometry" />
        </mxCell>
        <mxCell id="9fB1rzHVUbRyausaAl3s-63" value="teamAID" style="rounded=0;whiteSpace=wrap;html=1;" vertex="1" parent="1">
          <mxGeometry x="140" y="770" width="80" height="30" as="geometry" />
        </mxCell>
        <mxCell id="9fB1rzHVUbRyausaAl3s-64" value="teamBID" style="rounded=0;whiteSpace=wrap;html=1;" vertex="1" parent="1">
          <mxGeometry x="220" y="770" width="80" height="30" as="geometry" />
        </mxCell>
        <mxCell id="9fB1rzHVUbRyausaAl3s-65" value="winner" style="rounded=0;whiteSpace=wrap;html=1;" vertex="1" parent="1">
          <mxGeometry x="380" y="770" width="80" height="30" as="geometry" />
        </mxCell>
        <mxCell id="9fB1rzHVUbRyausaAl3s-66" value="startTime" style="rounded=0;whiteSpace=wrap;html=1;" vertex="1" parent="1">
          <mxGeometry x="460" y="770" width="80" height="30" as="geometry" />
        </mxCell>
        <mxCell id="9fB1rzHVUbRyausaAl3s-67" value="endTime" style="rounded=0;whiteSpace=wrap;html=1;" vertex="1" parent="1">
          <mxGeometry x="540" y="770" width="80" height="30" as="geometry" />
        </mxCell>
        <mxCell id="9fB1rzHVUbRyausaAl3s-68" value="venueID" style="rounded=0;whiteSpace=wrap;html=1;" vertex="1" parent="1">
          <mxGeometry x="620" y="770" width="80" height="30" as="geometry" />
        </mxCell>
        <mxCell id="9fB1rzHVUbRyausaAl3s-69" value="localNum" style="rounded=0;whiteSpace=wrap;html=1;" vertex="1" parent="1">
          <mxGeometry x="700" y="770" width="80" height="30" as="geometry" />
        </mxCell>
        <mxCell id="9fB1rzHVUbRyausaAl3s-71" value="&lt;u&gt;gameID&lt;/u&gt;" style="rounded=0;whiteSpace=wrap;html=1;" vertex="1" parent="1">
          <mxGeometry x="60" y="770" width="80" height="30" as="geometry" />
        </mxCell>
        <mxCell id="9fB1rzHVUbRyausaAl3s-72" value="score" style="rounded=0;whiteSpace=wrap;html=1;" vertex="1" parent="1">
          <mxGeometry x="300" y="770" width="80" height="30" as="geometry" />
        </mxCell>
        <mxCell id="9fB1rzHVUbRyausaAl3s-75" value="tournamentID" style="rounded=0;whiteSpace=wrap;html=1;" vertex="1" parent="1">
          <mxGeometry x="780" y="770" width="90" height="30" as="geometry" />
        </mxCell>
        <mxCell id="9fB1rzHVUbRyausaAl3s-81" value="TOURNAMENT" style="rounded=1;whiteSpace=wrap;html=1;fillColor=#fff2cc;strokeColor=#d6b656;" vertex="1" parent="1">
          <mxGeometry x="60" y="840" width="110" height="30" as="geometry" />
        </mxCell>
        <mxCell id="9fB1rzHVUbRyausaAl3s-82" value="&lt;u&gt;tournamentID&lt;/u&gt;" style="rounded=0;whiteSpace=wrap;html=1;" vertex="1" parent="1">
          <mxGeometry x="60" y="870" width="120" height="30" as="geometry" />
        </mxCell>
        <mxCell id="9fB1rzHVUbRyausaAl3s-83" value="location" style="rounded=0;whiteSpace=wrap;html=1;" vertex="1" parent="1">
          <mxGeometry x="180" y="870" width="80" height="30" as="geometry" />
        </mxCell>
        <mxCell id="9fB1rzHVUbRyausaAl3s-84" value="description" style="rounded=0;whiteSpace=wrap;html=1;" vertex="1" parent="1">
          <mxGeometry x="260" y="870" width="80" height="30" as="geometry" />
        </mxCell>
        <mxCell id="9fB1rzHVUbRyausaAl3s-85" value="holder" style="rounded=0;whiteSpace=wrap;html=1;" vertex="1" parent="1">
          <mxGeometry x="340" y="870" width="80" height="30" as="geometry" />
        </mxCell>
        <mxCell id="9fB1rzHVUbRyausaAl3s-86" value="REGTOUR" style="rounded=1;whiteSpace=wrap;html=1;fillColor=#fff2cc;strokeColor=#d6b656;" vertex="1" parent="1">
          <mxGeometry x="60" y="930" width="80" height="30" as="geometry" />
        </mxCell>
        <mxCell id="9fB1rzHVUbRyausaAl3s-87" value="regID" style="rounded=0;whiteSpace=wrap;html=1;" vertex="1" parent="1">
          <mxGeometry x="60" y="960" width="80" height="30" as="geometry" />
        </mxCell>
        <mxCell id="9fB1rzHVUbRyausaAl3s-88" value="tournamentID" style="rounded=0;whiteSpace=wrap;html=1;" vertex="1" parent="1">
          <mxGeometry x="140" y="960" width="120" height="30" as="geometry" />
        </mxCell>
        <mxCell id="9fB1rzHVUbRyausaAl3s-89" value="teamID" style="rounded=0;whiteSpace=wrap;html=1;" vertex="1" parent="1">
          <mxGeometry x="260" y="960" width="80" height="30" as="geometry" />
        </mxCell>
        <mxCell id="9fB1rzHVUbRyausaAl3s-90" value="regTime" style="rounded=0;whiteSpace=wrap;html=1;" vertex="1" parent="1">
          <mxGeometry x="340" y="960" width="80" height="30" as="geometry" />
        </mxCell>
        <mxCell id="9fB1rzHVUbRyausaAl3s-91" value="isPublic" style="rounded=0;whiteSpace=wrap;html=1;" vertex="1" parent="1">
          <mxGeometry x="420" y="870" width="80" height="30" as="geometry" />
        </mxCell>
        <mxCell id="9fB1rzHVUbRyausaAl3s-92" value="status" style="rounded=0;whiteSpace=wrap;html=1;" vertex="1" parent="1">
          <mxGeometry x="500" y="870" width="80" height="30" as="geometry" />
        </mxCell>
        <mxCell id="9fB1rzHVUbRyausaAl3s-93" value="startTime" style="rounded=0;whiteSpace=wrap;html=1;" vertex="1" parent="1">
          <mxGeometry x="580" y="870" width="80" height="30" as="geometry" />
        </mxCell>
        <mxCell id="9fB1rzHVUbRyausaAl3s-94" value="endTime" style="rounded=0;whiteSpace=wrap;html=1;" vertex="1" parent="1">
          <mxGeometry x="660" y="870" width="80" height="30" as="geometry" />
        </mxCell>
        <mxCell id="9fB1rzHVUbRyausaAl3s-95" value="totalTeam" style="rounded=0;whiteSpace=wrap;html=1;" vertex="1" parent="1">
          <mxGeometry x="740" y="870" width="80" height="30" as="geometry" />
        </mxCell>
        <mxCell id="9fB1rzHVUbRyausaAl3s-97" value="fee" style="rounded=0;whiteSpace=wrap;html=1;" vertex="1" parent="1">
          <mxGeometry x="820" y="870" width="80" height="30" as="geometry" />
        </mxCell>
        <mxCell id="9fB1rzHVUbRyausaAl3s-98" value="prise" style="rounded=0;whiteSpace=wrap;html=1;" vertex="1" parent="1">
          <mxGeometry x="900" y="870" width="80" height="30" as="geometry" />
        </mxCell>
        <mxCell id="9fB1rzHVUbRyausaAl3s-99" value="status" style="rounded=0;whiteSpace=wrap;html=1;" vertex="1" parent="1">
          <mxGeometry x="420" y="960" width="80" height="30" as="geometry" />
        </mxCell>
      </root>
    </mxGraphModel>
  </diagram>
</mxfile>
